<svg version="1.1" viewBox="0.0 0.0 100.01049868766404 100.0" fill="none" stroke="none" stroke-linecap="square" stroke-miterlimit="10" xmlns:xlink="http://www.w3.org/1999/xlink" xmlns="http://www.w3.org/2000/svg"><clipPath id="p.0"><path d="m0 0l100.0105 0l0 100.0l-100.0105 0l0 -100.0z" clip-rule="nonzero"/></clipPath><g clip-path="url(#p.0)"><path fill="#000000" fill-opacity="0.0" d="m0 0l100.0105 0l0 100.0l-100.0105 0z" fill-rule="evenodd"/><path fill="#000000" fill-opacity="0.0" d="m-2.839895 8.999344l100.0 0l0 31.779526l-100.0 0z" fill-rule="evenodd"/><path fill="#38761d" d="m13.73823 31.27372l-0.421875 0.921875l-5.0625 -10.5625l0.84375 0l4.640625 9.640625zm0.84375 -1.84375l-0.421875 0.921875l-4.21875 -8.71875l0.84375 0l3.796875 7.796875zm0.84375 -1.84375l-0.421875 0.921875l-3.375 -6.875l0.84375 0l2.953125 5.953125zm-1.0625 6.90625l6.109375 -12.859375l0.84375 0l-6.109375 12.859375l0 6.546875l-0.84375 0l0 -6.546875zm1.6875 0l6.109375 -12.859375l0.84375 0l-6.109375 12.859375l0 6.546875l-0.84375 0l0 -6.546875zm1.6875 0l6.109375 -12.859375l0.84375 0l-6.109375 12.859375l0 6.546875l-0.84375 0l0 -6.546875zm-4.640625 -0.890625l5.6875 -11.96875l0.84375 0l-6.109375 12.859375l0 6.546875l-0.84375 0l0 -6.546875l-6.109375 -12.859375l0.84375 0l5.6875 11.96875zm19.531252 -3.375q-0.9843769 0.984375 -0.9843769 2.375q0 1.390625 0.9843769 2.390625q1.0 0.984375 2.390625 0.984375q1.40625 0 2.390625 -0.984375q0.984375 -1.0 0.984375 -2.390625q0 -1.390625 -0.984375 -2.375q-0.984375 -1.0 -2.390625 -1.0q-1.390625 0 -2.390625 1.0zm-0.59375 5.359375q-1.2343769 -1.234375 -1.2343769 -2.984375q0 -1.75 1.2343769 -2.984375q1.25 -1.234375 2.984375 -1.234375q1.75 0 2.984375 1.234375q1.234375 1.234375 1.234375 2.984375q0 1.75 -1.234375 2.984375q-1.234375 1.234375 -2.984375 1.234375q-1.734375 0 -2.984375 -1.234375zm-0.5937519 -6.5625q-1.484375 1.484375 -1.484375 3.578125q0 2.078125 1.484375 3.578125q1.4843769 1.484375 3.578127 1.484375q2.109375 0 3.578125 -1.484375q1.484375 -1.5 1.484375 -3.578125q0 -2.09375 -1.484375 -3.578125q-1.46875 -1.484375 -3.578125 -1.484375q-2.09375 0 -3.578127 1.484375zm-1.53125 6.546875q-0.796875 -1.359375 -0.796875 -2.96875q0 -1.609375 0.796875 -2.96875q0.796875 -1.359375 2.156252 -2.140625q1.359375 -0.796875 2.953125 -0.796875q1.609375 0 2.96875 0.796875q1.359375 0.78125 2.140625 2.140625q0.796875 1.359375 0.796875 2.96875q0 1.609375 -0.796875 2.96875q-0.78125 1.359375 -2.140625 2.15625q-1.359375 0.78125 -2.96875 0.78125q-1.59375 0 -2.953125 -0.78125q-1.3593769 -0.796875 -2.156252 -2.15625zm-1.109375 -5.59375q-0.53125 1.25 -0.53125 2.625q0 1.375 0.53125 2.625q0.546875 1.234375 1.453125 2.15625q0.90625 0.90625 2.156252 1.4375q1.25 0.53125 2.609375 0.53125q1.375 0 2.625 -0.53125q1.25 -0.53125 2.15625 -1.4375q0.90625 -0.921875 1.4375 -2.15625q0.53125 -1.25 0.53125 -2.625q0 -1.375 -0.53125 -2.625q-0.53125 -1.25 -1.4375 -2.15625q-0.90625 -0.90625 -2.15625 -1.4375q-1.25 -0.53125 -2.625 -0.53125q-1.359375 0 -2.609375 0.53125q-1.2500019 0.53125 -2.156252 1.4375q-0.90625 0.90625 -1.453125 2.15625zm-0.765625 5.578125q-0.609375 -1.40625 -0.609375 -2.953125q0 -1.546875 0.609375 -2.953125q0.609375 -1.40625 1.609375 -2.421875q1.015625 -1.015625 2.421877 -1.609375q1.40625 -0.609375 2.953125 -0.609375q1.546875 0 2.953125 0.609375q1.40625 0.59375 2.421875 1.609375q1.015625 1.015625 1.609375 2.421875q0.609375 1.40625 0.609375 2.953125q0 1.546875 -0.609375 2.953125q-0.59375 1.40625 -1.609375 2.421875q-1.015625 1.015625 -2.421875 1.625q-1.40625 0.59375 -2.953125 0.59375q-1.546875 0 -2.953125 -0.59375q-1.4062519 -0.609375 -2.421877 -1.625q-1.0 -1.015625 -1.609375 -2.421875zm-0.78125 -6.234375q-0.671875 1.5625 -0.671875 3.28125q0 1.703125 0.671875 3.28125q0.671875 1.5625 1.796875 2.6875q1.140625 1.125 2.703125 1.796875q1.5625019 0.671875 3.265627 0.671875q1.71875 0 3.28125 -0.671875q1.5625 -0.671875 2.6875 -1.796875q1.140625 -1.125 1.796875 -2.6875q0.671875 -1.578125 0.671875 -3.28125q0 -1.71875 -0.671875 -3.28125q-0.65625 -1.5625 -1.796875 -2.6875q-1.125 -1.140625 -2.6875 -1.796875q-1.5625 -0.671875 -3.28125 -0.671875q-1.703125 0 -3.265627 0.671875q-1.5625 0.65625 -2.703125 1.796875q-1.125 1.125 -1.796875 2.6875zm-0.78125 6.890625q-0.734375 -1.71875 -0.734375 -3.609375q0 -1.890625 0.734375 -3.609375q0.75 -1.71875 1.984375 -2.953125q1.25 -1.25 2.96875 -1.984375q1.7187519 -0.734375 3.593752 -0.734375q1.890625 0 3.609375 0.734375q1.71875 0.734375 2.953125 1.984375q1.25 1.234375 1.984375 2.953125q0.734375 1.71875 0.734375 3.609375q0 1.890625 -0.734375 3.609375q-0.734375 1.703125 -1.984375 2.953125q-1.234375 1.234375 -2.953125 1.96875q-1.71875 0.75 -3.609375 0.75q-1.875 0 -3.593752 -0.75q-1.71875 -0.734375 -2.96875 -1.96875q-1.234375 -1.25 -1.984375 -2.953125zm30.800783 -2.65625l0 -9.390625l0.84375 0l0 9.390625q0 1.34375 -1.03125 2.3125q-1.03125 0.953125 -2.46875 0.953125q-1.4375 0 -2.46875 -0.953125q-1.015625 -0.96875 -1.015625 -2.3125l0 -9.390625l0.84375 0l0 9.390625q0 1.0 0.765625 1.71875q0.78125 0.703125 1.875 0.703125q1.09375 0 1.875 -0.703125q0.78125 -0.71875 0.78125 -1.71875zm1.6875 0l0 -9.390625l0.84375 0l0 9.390625q0 2.0625 -1.53125 3.515625q-1.515625 1.4375 -3.65625 1.4375q-2.125 0 -3.65625 -1.4375q-1.515625 -1.453125 -1.515625 -3.515625l0 -9.390625l0.84375 0l0 9.390625q0 1.703125 1.265625 2.90625q1.265625 1.203125 3.0625 1.203125q1.78125 0 3.0625 -1.203125q1.28125 -1.203125 1.28125 -2.90625zm1.6875 0l0 -9.390625l0.84375 0l0 9.390625q0 1.796875 -0.9375 3.328125q-0.921875 1.53125 -2.5 2.421875q-1.578125 0.890625 -3.4375 0.890625q-1.84375 0 -3.4375 -0.890625q-1.578125 -0.890625 -2.5 -2.421875q-0.921875 -1.53125 -0.921875 -3.328125l0 -9.390625l0.84375 0l0 9.390625q0 1.5625 0.796875 2.90625q0.8125 1.328125 2.203125 2.109375q1.390625 0.78125 3.015625 0.78125q1.625 0 3.015625 -0.78125q1.390625 -0.78125 2.203125 -2.109375q0.8125 -1.34375 0.8125 -2.90625zm1.6875 0l0 -9.390625l0.84375 0l0 9.390625q0 1.6875 -0.6875 3.234375q-0.671875 1.546875 -1.828125 2.65625q-1.140625 1.109375 -2.734375 1.765625q-1.578125 0.671875 -3.3125 0.671875q-1.734375 0 -3.3125 -0.671875q-1.578125 -0.65625 -2.734375 -1.765625q-1.140625 -1.109375 -1.828125 -2.65625q-0.671875 -1.546875 -0.671875 -3.234375l0 -9.390625l0.84375 0l0 9.390625q0 2.015625 1.03125 3.75q1.03125 1.71875 2.8125 2.734375q1.78125 1.0 3.859375 1.0q2.09375 0 3.859375 -1.0q1.78125 -1.015625 2.8125 -2.734375q1.046875 -1.734375 1.046875 -3.75zm9.335934 -0.578125l5.078125 0q1.015625 0 1.71875 -0.625q0.703125 -0.640625 0.703125 -1.796875q0 -0.84375 -0.734375 -1.5q-0.734375 -0.671875 -1.6875 -0.671875l-7.234375 0l0 12.65625l-0.84375 0l0 -13.5l8.078125 0q1.3125 0 2.28125 0.921875q0.984375 0.90625 0.984375 2.09375q0 1.5 -0.953125 2.390625q-0.953125 0.875 -2.3125 0.875l-5.078125 0l0 -0.84375zm0 1.6875l5.078125 0q1.6875 0 2.890625 -1.140625q1.21875 -1.15625 1.21875 -2.96875q0 -1.53125 -1.234375 -2.6875q-1.234375 -1.171875 -2.875 -1.171875l-8.921875 0l0 14.34375l-0.84375 0l0 -15.1875l9.765625 0q2.0 0 3.46875 1.421875q1.484375 1.40625 1.484375 3.28125q0 2.109375 -1.46875 3.53125q-1.453125 1.421875 -3.484375 1.421875l-5.078125 0l0 -0.84375zm0 1.6875l5.078125 0q1.5625 0 2.890625 -0.75q1.328125 -0.75 2.109375 -2.078125q0.796875 -1.34375 0.796875 -2.96875q0 -1.453125 -0.796875 -2.734375q-0.78125 -1.296875 -2.125 -2.046875q-1.328125 -0.765625 -2.875 -0.765625l-10.609375 0l0 16.03125l-0.84375 0l0 -16.875l11.453125 0q1.328125 0 2.546875 0.53125q1.234375 0.515625 2.125 1.375q0.890625 0.859375 1.421875 2.046875q0.546875 1.171875 0.546875 2.4375q0 2.0625 -0.9375 3.59375q-0.9375 1.515625 -2.515625 2.3125l1.765625 4.578125l-0.90625 0l-1.671875 -4.234375q-0.3125 0.109375 -0.734375 0.21875l1.578125 4.015625l-0.90625 0l-1.546875 -3.875q-0.359375 0.03125 -0.765625 0.03125l1.5 3.84375l-0.890625 0l-1.484375 -3.84375l-0.765625 0l1.421875 3.84375l-0.890625 0l-1.421875 -3.84375l-2.546875 0l0 -0.84375zm-0.46875 4.6875l-0.84375 0l0 -11.8125l6.390625 0q0.65625 0 1.109375 0.390625q0.46875 0.390625 0.46875 0.9375q0 1.578125 -1.578125 1.578125l-5.078125 0l0 -0.84375l5.078125 0q0.734375 0 0.734375 -0.734375q0 -0.1875 -0.21875 -0.328125q-0.21875 -0.15625 -0.515625 -0.15625l-5.546875 0l0 10.96875z" fill-rule="nonzero"/><path fill="#000000" fill-opacity="0.0" d="m18.338583 38.26378l80.40945 0l0 30.015747l-80.40945 0z" fill-rule="evenodd"/><path fill="#0c343d" d="m28.182333 50.10565l0.65625 0l0 15.078125l-0.65625 0l0 -15.078125zm3.937498 0l0.65625 0l0 11.796875l5.25 0l0 0.65625l-5.25 0l0 0.65625l5.25 0l0 0.65625l-5.25 0l0 0.65625l5.25 0l0 0.65625l-5.90625 0l0 -15.078125zm-1.3124981 0l0.65625 0l0 15.078125l-0.65625 0l0 -15.078125zm-1.3125 0l0.65625 0l0 15.078125l-0.65625 0l0 -15.078125zm14.98979 6.671875q-0.765625 0.765625 -0.765625 1.859375q0 1.078125 0.765625 1.84375q0.765625 0.765625 1.84375 0.765625q1.09375 0 1.859375 -0.765625q0.78125 -0.765625 0.78125 -1.84375q0 -1.09375 -0.78125 -1.859375q-0.765625 -0.78125 -1.859375 -0.78125q-1.078125 0 -1.84375 0.78125zm-0.46875 4.171875q-0.953125 -0.96875 -0.953125 -2.328125q0 -1.359375 0.953125 -2.3125q0.96875 -0.96875 2.328125 -0.96875q1.359375 0 2.3125 0.96875q0.96875 0.953125 0.96875 2.3125q0 1.359375 -0.96875 2.328125q-0.953125 0.953125 -2.3125 0.953125q-1.359375 0 -2.328125 -0.953125zm-0.46875 -5.109375q-1.140625 1.15625 -1.140625 2.78125q0 1.625 1.140625 2.78125q1.15625 1.15625 2.78125 1.15625q1.640625 0 2.796875 -1.15625q1.15625 -1.15625 1.15625 -2.78125q0 -1.625 -1.15625 -2.78125q-1.15625 -1.15625 -2.796875 -1.15625q-1.625 0 -2.78125 1.15625zm-1.1875 5.09375q-0.609375 -1.0625 -0.609375 -2.3125q0 -1.25 0.609375 -2.296875q0.625 -1.0625 1.671875 -1.671875q1.0625 -0.625 2.3125 -0.625q1.25 0 2.296875 0.625q1.0625 0.609375 1.671875 1.671875q0.625 1.046875 0.625 2.296875q0 1.25 -0.625 2.3125q-0.609375 1.046875 -1.671875 1.671875q-1.046875 0.609375 -2.296875 0.609375q-1.25 0 -2.3125 -0.609375q-1.046875 -0.625 -1.671875 -1.671875zm-0.859375 -4.34375q-0.40625 0.96875 -0.40625 2.03125q0 1.0625 0.40625 2.046875q0.421875 0.96875 1.125 1.671875q0.703125 0.703125 1.671875 1.125q0.984375 0.40625 2.046875 0.40625q1.0625 0 2.03125 -0.40625q0.96875 -0.421875 1.671875 -1.125q0.71875 -0.703125 1.125 -1.671875q0.421875 -0.984375 0.421875 -2.046875q0 -1.0625 -0.421875 -2.03125q-0.40625 -0.96875 -1.125 -1.671875q-0.703125 -0.71875 -1.671875 -1.125q-0.96875 -0.421875 -2.03125 -0.421875q-1.0625 0 -2.046875 0.421875q-0.96875 0.40625 -1.671875 1.125q-0.703125 0.703125 -1.125 1.671875zm-0.59375 4.328125q-0.46875 -1.09375 -0.46875 -2.296875q0 -1.203125 0.46875 -2.296875q0.46875 -1.09375 1.25 -1.875q0.796875 -0.796875 1.890625 -1.265625q1.09375 -0.46875 2.296875 -0.46875q1.203125 0 2.296875 0.46875q1.09375 0.46875 1.875 1.265625q0.796875 0.78125 1.265625 1.875q0.46875 1.09375 0.46875 2.296875q0 1.203125 -0.46875 2.296875q-0.46875 1.09375 -1.265625 1.890625q-0.78125 0.78125 -1.875 1.25q-1.09375 0.46875 -2.296875 0.46875q-1.203125 0 -2.296875 -0.46875q-1.09375 -0.46875 -1.890625 -1.25q-0.78125 -0.796875 -1.25 -1.890625zm-0.609375 -4.84375q-0.515625 1.21875 -0.515625 2.546875q0 1.328125 0.515625 2.546875q0.53125 1.21875 1.40625 2.109375q0.875 0.875 2.09375 1.390625q1.21875 0.515625 2.546875 0.515625q1.328125 0 2.546875 -0.515625q1.21875 -0.515625 2.09375 -1.390625q0.875 -0.890625 1.390625 -2.109375q0.53125 -1.21875 0.53125 -2.546875q0 -1.328125 -0.53125 -2.546875q-0.515625 -1.21875 -1.390625 -2.09375q-0.875 -0.875 -2.09375 -1.390625q-1.21875 -0.53125 -2.546875 -0.53125q-1.328125 0 -2.546875 0.53125q-1.21875 0.515625 -2.09375 1.390625q-0.875 0.875 -1.40625 2.09375zm-0.59375 5.359375q-0.578125 -1.34375 -0.578125 -2.8125q0 -1.46875 0.578125 -2.796875q0.578125 -1.328125 1.53125 -2.296875q0.96875 -0.96875 2.296875 -1.546875q1.34375 -0.578125 2.8125 -0.578125q1.46875 0 2.796875 0.578125q1.328125 0.578125 2.296875 1.546875q0.96875 0.96875 1.546875 2.296875q0.578125 1.328125 0.578125 2.796875q0 1.46875 -0.578125 2.8125q-0.578125 1.328125 -1.546875 2.296875q-0.96875 0.96875 -2.296875 1.53125q-1.328125 0.578125 -2.796875 0.578125q-1.46875 0 -2.8125 -0.578125q-1.328125 -0.5625 -2.296875 -1.53125q-0.953125 -0.96875 -1.53125 -2.296875zm25.97179 -2.90625l0.65625 0l0 6.65625q-1.453125 0.65625 -3.0156288 0.65625q-1.46875 0 -2.8125 -0.578125q-1.328125 -0.5625 -2.296875 -1.53125q-0.953125 -0.96875 -1.53125 -2.296875q-0.578125 -1.34375 -0.578125 -2.8125q0 -1.46875 0.578125 -2.796875q0.578125 -1.328125 1.53125 -2.296875q0.96875 -0.96875 2.296875 -1.546875q1.34375 -0.578125 2.8125 -0.578125q1.6718788 0 3.1406288 0.734375q1.484375 0.71875 2.5 1.984375l-0.53125 0.390625q-0.921875 -1.140625 -2.265625 -1.796875q-1.328125 -0.65625 -2.8437538 -0.65625q-1.328125 0 -2.546875 0.53125q-1.21875 0.515625 -2.09375 1.390625q-0.875 0.875 -1.40625 2.09375q-0.515625 1.21875 -0.515625 2.546875q0 1.328125 0.515625 2.546875q0.53125 1.21875 1.40625 2.109375q0.875 0.875 2.09375 1.390625q1.21875 0.515625 2.546875 0.515625q1.2343788 0 2.3593788 -0.4375l0 -0.671875q-1.140625 0.453125 -2.3593788 0.453125q-1.203125 0 -2.296875 -0.46875q-1.09375 -0.46875 -1.890625 -1.25q-0.78125 -0.796875 -1.25 -1.890625q-0.46875 -1.09375 -0.46875 -2.296875q0 -1.203125 0.46875 -2.296875q0.46875 -1.09375 1.25 -1.875q0.796875 -0.796875 1.890625 -1.265625q1.09375 -0.46875 2.296875 -0.46875q1.3750038 0 2.5781288 0.59375q1.203125 0.59375 2.03125 1.640625l-0.5 0.40625q-0.734375 -0.921875 -1.8125 -1.453125q-1.078125 -0.53125 -2.2968788 -0.53125q-1.0625 0 -2.046875 0.421875q-0.96875 0.40625 -1.671875 1.125q-0.703125 0.703125 -1.125 1.671875q-0.40625 0.96875 -0.40625 2.03125q0 1.0625 0.40625 2.046875q0.421875 0.96875 1.125 1.671875q0.703125 0.703125 1.671875 1.125q0.984375 0.40625 2.046875 0.40625q1.2500038 0 2.3593788 -0.515625l0 -0.671875q-1.109375 0.53125 -2.3593788 0.53125q-1.25 0 -2.3125 -0.609375q-1.046875 -0.625 -1.671875 -1.671875q-0.609375 -1.0625 -0.609375 -2.3125q0 -1.25 0.609375 -2.296875q0.625 -1.0625 1.671875 -1.671875q1.0625 -0.625 2.3125 -0.625q1.0625038 0 2.0000038 0.46875q0.953125 0.453125 1.59375 1.265625l-0.53125 0.40625q-0.546875 -0.6875 -1.359375 -1.078125q-0.796875 -0.40625 -1.7031288 -0.40625q-1.640625 0 -2.796875 1.15625q-1.140625 1.15625 -1.140625 2.78125q0 1.625 1.140625 2.78125q1.15625 1.15625 2.796875 1.15625q1.2656288 0 2.3593788 -0.625l0 -0.65625q-1.0625 0.625 -2.3593788 0.625q-1.359375 0 -2.328125 -0.953125q-0.953125 -0.96875 -0.953125 -2.328125q0 -1.359375 0.953125 -2.3125q0.96875 -0.96875 2.328125 -0.96875q0.7656288 0 1.4375038 0.34375q0.671875 0.328125 1.125 0.90625l-0.53125 0.390625q-0.78125 -0.984375 -2.0312538 -0.984375q-1.09375 0 -1.859375 0.78125q-0.765625 0.765625 -0.765625 1.859375q0 1.078125 0.765625 1.84375q0.765625 0.765625 1.859375 0.765625q1.3906288 0 2.3593788 -0.765625l0 -1.953125zm3.9375 0l0.65625 0l0 6.65625l-0.65625 0l0 -6.65625zm-1.3125 0l0.65625 0l0 6.65625l-0.65625 0l0 -6.65625zm-1.3125 0l0.65625 0l0 6.65625l-0.65625 0l0 -6.65625zm9.900238 -1.75q-0.765625 0.765625 -0.765625 1.859375q0 1.078125 0.765625 1.84375q0.765625 0.765625 1.84375 0.765625q1.09375 0 1.859375 -0.765625q0.78125 -0.765625 0.78125 -1.84375q0 -1.09375 -0.78125 -1.859375q-0.765625 -0.78125 -1.859375 -0.78125q-1.078125 0 -1.84375 0.78125zm-0.46875 4.171875q-0.953125 -0.96875 -0.953125 -2.328125q0 -1.359375 0.953125 -2.3125q0.96875 -0.96875 2.328125 -0.96875q1.359375 0 2.3125 0.96875q0.96875 0.953125 0.96875 2.3125q0 1.359375 -0.96875 2.328125q-0.953125 0.953125 -2.3125 0.953125q-1.359375 0 -2.328125 -0.953125zm-0.46875 -5.109375q-1.140625 1.15625 -1.140625 2.78125q0 1.625 1.140625 2.78125q1.15625 1.15625 2.78125 1.15625q1.640625 0 2.796875 -1.15625q1.15625 -1.15625 1.15625 -2.78125q0 -1.625 -1.15625 -2.78125q-1.15625 -1.15625 -2.796875 -1.15625q-1.625 0 -2.78125 1.15625zm-1.1875 5.09375q-0.609375 -1.0625 -0.609375 -2.3125q0 -1.25 0.609375 -2.296875q0.625 -1.0625 1.671875 -1.671875q1.0625 -0.625 2.3125 -0.625q1.25 0 2.296875 0.625q1.0625 0.609375 1.671875 1.671875q0.625 1.046875 0.625 2.296875q0 1.25 -0.625 2.3125q-0.609375 1.046875 -1.671875 1.671875q-1.046875 0.609375 -2.296875 0.609375q-1.25 0 -2.3125 -0.609375q-1.046875 -0.625 -1.671875 -1.671875zm-0.859375 -4.34375q-0.40625 0.96875 -0.40625 2.03125q0 1.0625 0.40625 2.046875q0.421875 0.96875 1.125 1.671875q0.703125 0.703125 1.671875 1.125q0.984375 0.40625 2.046875 0.40625q1.0625 0 2.03125 -0.40625q0.96875 -0.421875 1.671875 -1.125q0.71875 -0.703125 1.125 -1.671875q0.421875 -0.984375 0.421875 -2.046875q0 -1.0625 -0.421875 -2.03125q-0.40625 -0.96875 -1.125 -1.671875q-0.703125 -0.71875 -1.671875 -1.125q-0.96875 -0.421875 -2.03125 -0.421875q-1.0625 0 -2.046875 0.421875q-0.96875 0.40625 -1.671875 1.125q-0.703125 0.703125 -1.125 1.671875zm-0.59375 4.328125q-0.46875 -1.09375 -0.46875 -2.296875q0 -1.203125 0.46875 -2.296875q0.46875 -1.09375 1.25 -1.875q0.796875 -0.796875 1.890625 -1.265625q1.09375 -0.46875 2.296875 -0.46875q1.203125 0 2.296875 0.46875q1.09375 0.46875 1.875 1.265625q0.796875 0.78125 1.265625 1.875q0.46875 1.09375 0.46875 2.296875q0 1.203125 -0.46875 2.296875q-0.46875 1.09375 -1.265625 1.890625q-0.78125 0.78125 -1.875 1.25q-1.09375 0.46875 -2.296875 0.46875q-1.203125 0 -2.296875 -0.46875q-1.09375 -0.46875 -1.890625 -1.25q-0.78125 -0.796875 -1.25 -1.890625zm-0.609375 -4.84375q-0.515625 1.21875 -0.515625 2.546875q0 1.328125 0.515625 2.546875q0.53125 1.21875 1.40625 2.109375q0.875 0.875 2.09375 1.390625q1.21875 0.515625 2.546875 0.515625q1.328125 0 2.546875 -0.515625q1.21875 -0.515625 2.09375 -1.390625q0.875 -0.890625 1.390625 -2.109375q0.53125 -1.21875 0.53125 -2.546875q0 -1.328125 -0.53125 -2.546875q-0.515625 -1.21875 -1.390625 -2.09375q-0.875 -0.875 -2.09375 -1.390625q-1.21875 -0.53125 -2.546875 -0.53125q-1.328125 0 -2.546875 0.53125q-1.21875 0.515625 -2.09375 1.390625q-0.875 0.875 -1.40625 2.09375zm-0.59375 5.359375q-0.578125 -1.34375 -0.578125 -2.8125q0 -1.46875 0.578125 -2.796875q0.578125 -1.328125 1.53125 -2.296875q0.96875 -0.96875 2.296875 -1.546875q1.34375 -0.578125 2.8125 -0.578125q1.46875 0 2.796875 0.578125q1.328125 0.578125 2.296875 1.546875q0.96875 0.96875 1.546875 2.296875q0.578125 1.328125 0.578125 2.796875q0 1.46875 -0.578125 2.8125q-0.578125 1.328125 -1.546875 2.296875q-0.96875 0.96875 -2.296875 1.53125q-1.328125 0.578125 -2.796875 0.578125q-1.46875 0 -2.8125 -0.578125q-1.328125 -0.5625 -2.296875 -1.53125q-0.953125 -0.96875 -1.53125 -2.296875z" fill-rule="nonzero"/><path fill="#0c343d" d="m76.06639 73.94095l15.921257 0l6.755905 6.755905l-6.755905 6.755905l-15.921257 0l6.755905 -6.755905z" fill-rule="evenodd"/><path fill="#0c343d" d="m57.446774 73.94095l15.921261 0l6.755905 6.755905l-6.755905 6.755905l-15.921261 0l6.755909 -6.755905z" fill-rule="evenodd"/><path fill="#0c343d" d="m38.827156 73.94095l15.921261 0l6.755905 6.755905l-6.755905 6.755905l-15.921261 0l6.755909 -6.755905z" fill-rule="evenodd"/><path fill="#0c343d" d="m20.207542 73.94095l15.921261 0l6.755905 6.755905l-6.755905 6.755905l-15.921261 0l6.755905 -6.755905z" fill-rule="evenodd"/><path fill="#0c343d" d="m1.5879265 73.94095l15.921259 0l6.755905 6.755905l-6.755905 6.755905l-15.921259 0l6.7559056 -6.755905z" fill-rule="evenodd"/><path fill="#0c343d" d="m24.099737 16.452755l-15.92126 0l-6.755905 -6.755905l6.755905 -6.755905l15.92126 0l-6.755905 6.755905z" fill-rule="evenodd"/><path fill="#0c343d" d="m42.719353 16.452755l-15.921259 0l-6.755907 -6.755905l6.755907 -6.755905l15.921259 0l-6.755905 6.755905z" fill-rule="evenodd"/><path fill="#0c343d" d="m61.33897 16.452755l-15.921261 0l-6.755905 -6.755905l6.755905 -6.755905l15.921261 0l-6.755905 6.755905z" fill-rule="evenodd"/><path fill="#0c343d" d="m79.95859 16.452755l-15.921265 0l-6.755905 -6.755905l6.755905 -6.755905l15.921265 0l-6.755905 6.755905z" fill-rule="evenodd"/><path fill="#0c343d" d="m98.5782 16.452755l-15.921265 0l-6.755905 -6.755905l6.755905 -6.755905l15.921265 0l-6.755905 6.755905z" fill-rule="evenodd"/></g></svg>