<svg version="1.1" viewBox="0.0 0.0 100.01049868766404 100.0" fill="none" stroke="none" stroke-linecap="square" stroke-miterlimit="10" xmlns:xlink="http://www.w3.org/1999/xlink" xmlns="http://www.w3.org/2000/svg"><clipPath id="p.0"><path d="m0 0l100.0105 0l0 100.0l-100.0105 0l0 -100.0z" clip-rule="nonzero"/></clipPath><g clip-path="url(#p.0)"><path fill="#000000" fill-opacity="0.0" d="m0 0l100.0105 0l0 100.0l-100.0105 0z" fill-rule="evenodd"/><path fill="#000000" fill-opacity="0.0" d="m-2.839895 8.999344l100.0 0l0 31.779526l-100.0 0z" fill-rule="evenodd"/><path fill="#38761d" d="m27.441355 24.24247q0.484375 0 0.484375 0.484375q0 0.296875 -0.265625 0.671875l-5.375 8.515625q0 1.9375 -0.109375 5.65625q-0.03125 0.53125 -0.46875 0.984375q-0.421875 0.4375 -1.140625 0.484375q-1.375 0.09375 -3.296875 0.09375q-1.921875 0 -3.53125 -0.09375q-0.71875 -0.046875 -1.15625 -0.484375q-0.421875 -0.453125 -0.453125 -0.984375q-0.046875 -2.421875 -0.046875 -5.03125l-4.84375 -8.140625q-0.359375 -0.546875 -0.359375 -0.90625q0 -1.203125 1.171875 -1.203125l8.21875 -0.046875q0.6875 0 1.03125 0.21875q0.359375 0.203125 0.828125 0.875l1.46875 3.15625q0.390625 0.515625 0.640625 0.515625q0.25 0 0.609375 -0.421875l2.453125 -3.84375q0.40625 -0.5 1.03125 -0.5l3.109375 0zm10.138689 10.796875q0 2.6875 1.40625 2.6875q1.421875 0 1.421875 -2.6875q0 -1.21875 -0.296875 -1.875q-0.28125 -0.671875 -1.125 -0.671875q-0.828125 0 -1.125 0.671875q-0.28125 0.65625 -0.28125 1.875zm10.359375 0q0 6.53125 -8.953125 6.53125q-8.953127 0 -8.953127 -6.53125q0 -3.09375 2.281252 -4.796875q2.28125 -1.703125 6.671875 -1.703125q4.390625 0 6.671875 1.703125q2.28125 1.703125 2.28125 4.796875zm9.652069 -5.15625l-0.03125 5.859375q0 0.6875 0.3125 1.046875q0.3125 0.359375 0.796875 0.359375q0.5 0 0.9375 -0.359375q0.453125 -0.375 0.65625 -1.03125l0 -1.46875q0 -3.15625 0.140625 -4.3125q0.0625 -0.40625 0.390625 -0.71875q0.34375 -0.3125 1.1875 -0.375q0.859375 -0.0625 1.703125 -0.0625q0.8437462 0 2.8593712 0.09375q0.578125 0.03125 0.90625 0.34375q0.34375 0.3125 0.390625 0.71875q0.171875 1.5625 0.171875 4.796875q0 3.21875 -0.109375 4.390625q-0.09375 1.171875 -0.359375 1.546875q-0.25 0.359375 -1.078125 0.359375l-4.671871 0q-0.8125 0 -1.09375 -0.359375q-0.28125 -0.375 -0.34375 -1.234375l0 -0.015625q-2.484375 1.890625 -5.03125 1.890625q-2.53125 0 -3.84375 -1.25q-1.3125 -1.265625 -1.34375 -3.5625q-0.03125 -2.3125 -0.03125 -4.109375q0 -1.8125 0.015625 -2.421875q0.03125 -0.625 0.328125 -0.90625q0.296875 -0.28125 1.171875 -0.28125l4.59375 -0.046875q0.78125 0 1.078125 0.28125q0.296875 0.265625 0.296875 0.828125zm14.8251915 -1.0625l4.6875 0q0.8125 0 1.125 0.359375q0.3125 0.34375 0.3125 1.03125l0 0.875q1.34375 -2.546875 4.375 -2.546875q1.0 0 1.640625 0.65625q0.65625 0.640625 0.65625 1.71875q0 1.078125 -0.578125 2.15625q-0.578125 1.0625 -1.609375 1.0625q-0.46875 0 -1.34375 -0.484375q-0.859375 -0.5 -1.390625 -0.5q-0.53125 0 -1.09375 0.390625q-0.5625 0.375 -0.5625 1.265625q0 3.859375 -0.140625 5.109375q-0.078125 0.40625 -0.421875 0.71875q-0.328125 0.3125 -1.1875 0.375q-0.84375 0.0625 -1.6875 0.0625q-0.828125 0 -2.84375 -0.109375q-0.578125 -0.015625 -0.921875 -0.328125q-0.328125 -0.3125 -0.375 -0.71875q-0.171875 -1.5625 -0.171875 -4.78125q0 -3.21875 0.09375 -4.40625q0.09375 -1.1875 0.359375 -1.546875q0.265625 -0.359375 1.078125 -0.359375z" fill-rule="nonzero"/><path fill="#000000" fill-opacity="0.0" d="m21.170603 38.53281l94.897644 0l0 30.015743l-94.897644 0z" fill-rule="evenodd"/><path fill="#0c343d" d="m39.076855 56.89031l-0.03125 3.734375q0 0.8125 0.25 1.21875q0.265625 0.40625 1.0625 0.40625l4.71875 0q0.859375 0.015625 0.859375 1.296875q0 0.9843712 -0.25 1.4374962q-0.234375 0.453125 -0.984375 0.46875q-2.625 0.078125 -5.203125 0.078125q-2.578125 0 -6.5625 -0.046875q-0.671875 0 -1.0937519 -0.3125q-0.421875 -0.328125 -0.484375 -0.90625q-0.140625 -1.6249962 -0.140625 -5.124996q0 -3.5 0.078125 -4.71875q0.09375 -1.21875 0.34375 -1.625q0.265625 -0.40625 1.0312519 -0.40625l5.0 0q0.78125 0 1.03125 0.421875q0.25 0.40625 0.3125 1.328125q0.0625 0.90625 0.0625 2.75zm13.71019 3.890625q0 2.09375 1.09375 2.09375q1.109375 0 1.109375 -2.09375q0 -0.9375 -0.234375 -1.453125q-0.21875 -0.515625 -0.875 -0.515625q-0.65625 0 -0.875 0.515625q-0.21875 0.515625 -0.21875 1.453125zm8.046875 0q0 5.078121 -6.953125 5.078121q-6.953125 0 -6.953125 -5.078121q0 -2.40625 1.765625 -3.71875q1.78125 -1.328125 5.1875 -1.328125q3.421875 0 5.1875 1.328125q1.765625 1.3125 1.765625 3.71875zm7.988186 -1.96875q-1.09375 0 -1.09375 1.609375q0 1.609375 1.0625 1.609375q0.46875 0 0.8125 -0.25q0.34375 -0.25 0.34375 -0.71875l0 -1.28125q0 -0.453125 -0.34375 -0.703125q-0.34375 -0.265625 -0.78125 -0.265625zm7.015625 -1.953125l0.046875 5.71875q0 1.8749962 -0.03125 2.8437462q-0.015625 0.96875 -0.5625 1.75q-0.53125 0.78125 -1.46875 1.234375q-1.828125 0.828125 -4.875 0.828125q-3.03125 0 -4.968746 -0.8125q-0.46875 -0.203125 -0.6875 -0.4375q-0.203125 -0.234375 -0.203125 -0.828125q0 -0.578125 0.21875 -0.859375q0.234375 -0.28125 0.546875 -0.28125q0.3281212 0 0.7968712 0.21875q1.4375 0.71875 2.875 0.71875q0.640625 0 1.15625 -0.140625q0.53125 -0.140625 0.9375 -0.578125q0.40625 -0.421875 0.40625 -1.09375l-0.03125 -1.0q0 -0.18749619 -0.109375 -0.18749619q-0.046875 0 -0.109375 0.062496185q-1.484375 1.4375 -3.28125 1.4375q-1.796875 0 -2.9999962 -1.140625q-1.203125 -1.1406212 -1.203125 -3.5937462q0 -2.46875 1.421875 -3.71875q1.4218712 -1.265625 3.4687462 -1.265625q2.0625 0 3.046875 1.28125q0.015625 -0.484375 0.34375 -0.734375q0.34375 -0.265625 0.75 -0.296875q0.421875 -0.046875 1.5 -0.046875l1.96875 0.03125q0.359375 0 0.703125 0.265625q0.34375 0.25 0.34375 0.625zm7.7694397 3.921875q0 2.09375 1.09375 2.09375q1.109375 0 1.109375 -2.09375q0 -0.9375 -0.234375 -1.453125q-0.21875 -0.515625 -0.875 -0.515625q-0.65625 0 -0.875 0.515625q-0.21875 0.515625 -0.21875 1.453125zm8.046875 0q0 5.078121 -6.953125 5.078121q-6.953125 0 -6.953125 -5.078121q0 -2.40625 1.765625 -3.71875q1.78125 -1.328125 5.1875 -1.328125q3.421875 0 5.1875 1.328125q1.765625 1.3125 1.765625 3.71875z" fill-rule="nonzero"/><path fill="#0c343d" d="m76.06639 73.94095l15.921257 0l6.755905 6.755905l-6.755905 6.755905l-15.921257 0l6.755905 -6.755905z" fill-rule="evenodd"/><path fill="#0c343d" d="m57.446774 73.94095l15.921261 0l6.755905 6.755905l-6.755905 6.755905l-15.921261 0l6.755909 -6.755905z" fill-rule="evenodd"/><path fill="#0c343d" d="m38.827156 73.94095l15.921261 0l6.755905 6.755905l-6.755905 6.755905l-15.921261 0l6.755909 -6.755905z" fill-rule="evenodd"/><path fill="#0c343d" d="m20.207542 73.94095l15.921261 0l6.755905 6.755905l-6.755905 6.755905l-15.921261 0l6.755905 -6.755905z" fill-rule="evenodd"/><path fill="#0c343d" d="m1.5879265 73.94095l15.921259 0l6.755905 6.755905l-6.755905 6.755905l-15.921259 0l6.7559056 -6.755905z" fill-rule="evenodd"/><path fill="#0c343d" d="m24.099737 16.452755l-15.92126 0l-6.755905 -6.755905l6.755905 -6.755905l15.92126 0l-6.755905 6.755905z" fill-rule="evenodd"/><path fill="#0c343d" d="m42.719353 16.452755l-15.921259 0l-6.755907 -6.755905l6.755907 -6.755905l15.921259 0l-6.755905 6.755905z" fill-rule="evenodd"/><path fill="#0c343d" d="m61.33897 16.452755l-15.921261 0l-6.755905 -6.755905l6.755905 -6.755905l15.921261 0l-6.755905 6.755905z" fill-rule="evenodd"/><path fill="#0c343d" d="m79.95859 16.452755l-15.921265 0l-6.755905 -6.755905l6.755905 -6.755905l15.921265 0l-6.755905 6.755905z" fill-rule="evenodd"/><path fill="#0c343d" d="m98.5782 16.452755l-15.921265 0l-6.755905 -6.755905l6.755905 -6.755905l15.921265 0l-6.755905 6.755905z" fill-rule="evenodd"/></g></svg>